<?xml version="1.0" standalone="no"?><!DOCTYPE svg PUBLIC "-//W3C//DTD SVG 1.1//EN" "http://www.w3.org/Graphics/SVG/1.1/DTD/svg11.dtd"><svg t="1595396070638" class="icon" viewBox="0 0 1053 1024" version="1.1" xmlns="http://www.w3.org/2000/svg" p-id="6156" xmlns:xlink="http://www.w3.org/1999/xlink" width="205.6640625" height="200"><defs><style type="text/css"></style></defs><path d="M331.250249 567.383771l-0.146286 0.555886c-0.117029 0.438857-0.263314 1.024-0.702171 1.726172l-0.438857 0.585142c-0.4096 0.555886-0.702171 0.848457-0.848457 1.258058l-53.365029 196.695771c-2.720914 10.152229 0.146286 20.860343 7.519086 28.554971a29.608229 29.608229 0 0 0 28.2624 7.285029l196.637257-53.248 0.292571 0.146286 0.555886-0.146286c0.994743-0.292571 1.4336-0.438857 1.989486-1.141029L1030.671506 227.093943c14.482286-14.687086 22.586514-34.816 22.586515-56.9344 0-25.131886-10.6496-50.117486-29.110858-68.520229l-49.122742-49.386057c-18.461257-18.549029-43.446857-29.257143-68.432458-29.257143a79.579429 79.579429 0 0 0-56.671085 22.674286L331.250249 567.383771zM841.845906 144.881371l53.6576-53.950171c9.654857-9.567086 27.706514-8.426057 38.765715 2.282057l49.122742 49.386057c5.822171 5.851429 9.245257 13.838629 9.245258 21.562515-0.292571 7.109486-2.574629 12.843886-6.816915 17.115428L931.138706 236.105143l-89.2928-91.223772zM413.755392 575.517257l380.957257-382.976 89.585372 91.516343-380.372115 382.244571-90.170514-90.784914z m-68.432457 158.72l30.661486-113.751771 82.212571 82.768457-112.874057 30.983314zM1026.926592 420.103314c-17.466514 0-26.331429 8.543086-26.331429 26.243657V918.966857c1.082514 27.765029-19.221943 52.136229-52.662857 52.516572H105.326592c-27.677257 0-52.662857-24.663771-52.662857-52.516572V105.033143c0-27.8528 25.131886-52.516571 52.662857-52.516572h500.297143c17.466514 0 41.632914-3.130514 41.632914-20.6848S633.066935 0 615.600421 0H108.340078C48.567735 0 0.000878 48.830171 0.000878 108.924343v806.180571C0.000878 975.169829 48.567735 1024 108.340078 1024h830.610285C998.722706 1024 1053.258021 979.061029 1053.258021 918.966857V446.346971c0.146286-17.554286-8.864914-26.243657-26.331429-26.243657z" fill="#ebeef5" p-id="6157"></path></svg>