<?xml version="1.0" standalone="no"?><!DOCTYPE svg PUBLIC "-//W3C//DTD SVG 1.1//EN" "http://www.w3.org/Graphics/SVG/1.1/DTD/svg11.dtd"><svg t="1595387031271" class="icon" viewBox="0 0 1024 1024" version="1.1" xmlns="http://www.w3.org/2000/svg" p-id="4484" xmlns:xlink="http://www.w3.org/1999/xlink" width="200" height="200"><defs><style type="text/css"></style></defs><path d="M404.622222 520.533333l-187.966578 187.966578c-30.589156 30.589156-30.606222 80.253156 0.005689 110.870756 30.623289 30.623289 80.253156 30.6176 110.870756 0l187.960889-187.960889 181.629155 181.623466c30.589156 30.589156 80.253156 30.606222 110.870756-0.005688 30.623289-30.623289 30.6176-80.253156 0-110.870756L626.375111 520.533333l181.629156-181.623466c30.589156-30.589156 30.606222-80.253156-0.005689-110.870756-30.623289-30.623289-80.258844-30.6176-110.870756-0.005689L515.498667 409.656889 327.532089 221.696c-30.589156-30.594844-80.253156-30.6176-110.870756 0-30.623289 30.623289-30.6176 80.258844-0.005689 110.870756L404.622222 520.533333z" fill="#ffffff" p-id="4485"></path></svg>