<?xml version="1.0" standalone="no"?><!DOCTYPE svg PUBLIC "-//W3C//DTD SVG 1.1//EN" "http://www.w3.org/Graphics/SVG/1.1/DTD/svg11.dtd"><svg t="1595029081851" class="icon" viewBox="0 0 1024 1024" version="1.1" xmlns="http://www.w3.org/2000/svg" p-id="3795" xmlns:xlink="http://www.w3.org/1999/xlink" width="200" height="200"><defs><style type="text/css"></style></defs><path d="M398.482367 796.964002a391.533435 391.533435 0 0 0 254.463818-92.745076l309.247779 309.174636a35.547403 35.547403 0 0 0 25.599982 10.605707 36.351974 36.351974 0 0 0 25.599982-61.805671L704.219291 652.945819a397.896859 397.896859 0 0 0 92.745077-254.536961A398.628287 398.628287 0 0 0 398.482367 0C179.346523 0 0.000366 179.346158 0.000366 398.482001a399.140286 399.140286 0 0 0 398.482001 398.482001zM402.285793 73.142805C584.191948 73.142805 731.428415 221.183842 731.428415 402.285427 731.428415 584.191583 584.191948 731.428049 402.285793 731.428049A329.508336 329.508336 0 0 1 73.143171 402.285427C73.143171 221.183842 221.184208 73.142805 402.285793 73.142805z" fill="#0084ff" p-id="3796"></path></svg>